# 3ds Max Wavefront OBJ Exporter v0.97b - (c)2007 guruware
# File Created: 22.10.2023 02:09:47

#
# object arrow
#

v  16.2500 -1.0000 2.5000
v  -3.7500 -1.0000 2.5000
v  -3.7500 -1.0000 -2.5000
v  16.2500 -1.0000 -2.5000
v  -3.7500 1.0000 -2.5000
v  -3.7500 1.0000 2.5000
v  16.2500 1.0000 2.5000
v  16.2500 1.0000 -2.5000
v  -13.7500 -1.0000 -2.5000
v  -13.7500 -1.0000 2.5000
v  -3.7500 -1.0000 12.5000
v  -3.7500 1.0000 12.5000
v  -13.7500 1.0000 2.5000
v  -13.7500 1.0000 -2.5000
v  -3.7500 1.0000 -12.5000
v  -3.7500 -1.0000 -12.5000
v  -16.2500 -1.0000 -0.0000
v  -16.2500 1.0000 -0.0000
# 18 vertices

vn 0.0000 -1.0000 -0.0000
vn 0.0000 1.0000 -0.0000
vn 0.0000 0.0000 1.0000
vn 1.0000 0.0000 -0.0000
vn 0.0000 0.0000 -1.0000
vn -0.7071 0.0000 0.7071
vn -0.7071 0.0000 -0.7071
# 7 vertex normals

vt 0.0000 0.0000 0.0000
vt 1.0000 0.0000 0.0000
vt 1.0000 1.0000 0.0000
vt 0.0000 1.0000 0.0000
vt 0.5000 0.0000 0.0000
vt 0.5000 1.0000 0.0000
# 6 texture coords

g arrow
s 2
f 1/1/1 2/2/1 3/3/1 4/4/1 
s 4
f 5/4/2 6/1/2 7/2/2 8/3/2 
s 8
f 6/4/3 2/1/3 1/2/3 7/3/3 
s 16
f 7/4/4 1/1/4 4/2/4 8/3/4 
s 32
f 8/4/5 4/1/5 3/2/5 5/3/5 
s off
f 9/1/1 3/3/1 2/2/1 10/2/1 
f 10/2/6 11/1/6 12/4/6 13/3/6 
f 13/3/2 6/1/2 5/4/2 14/4/2 
f 14/4/7 15/3/7 16/2/7 9/1/7 
f 15/3/4 5/3/4 3/2/4 16/2/4 
f 3/3/1 9/1/1 16/2/1 
f 14/4/2 5/4/2 15/3/2 
f 11/1/4 2/1/4 6/4/4 12/4/4 
f 6/1/2 13/3/2 12/4/2 
f 10/2/1 2/2/1 11/1/1 
f 9/1/1 10/2/1 17/5/1 
f 17/5/6 10/2/6 13/3/6 18/6/6 
f 13/3/2 14/4/2 18/6/2 
f 18/6/7 14/4/7 9/1/7 17/5/7 
# 13 polygons - 6 triangles

