# 3ds Max Wavefront OBJ Exporter v0.97b - (c)2007 guruware
# File Created: 11.10.2023 00:30:15

mtllib chair.mtl

#
# object mesh0
#

v  10.8647 3.8537 -10.8999
v  10.8647 3.8537 11.0673
v  10.8647 -0.1040 -10.8999
v  10.8647 -0.1040 11.0673
v  -11.0086 -0.1040 -10.8999
v  -7.1486 -0.1040 -9.9378
v  -10.0896 -0.1040 -9.9378
v  6.8209 -0.1040 -9.9378
v  -7.1486 -0.1040 -6.8913
v  9.9456 -0.1040 -9.9378
v  9.9456 -0.1040 -6.8913
v  -10.0896 -0.1040 -6.8913
v  -10.0896 -0.1040 7.0587
v  -7.1486 -0.1040 7.0587
v  -7.1486 -0.1040 10.1052
v  -11.0086 -0.1040 11.0673
v  -10.0896 -0.1040 10.1052
v  6.8209 -0.1040 10.1052
v  6.8209 -0.1040 7.0587
v  9.9456 -0.1040 10.1052
v  6.8209 -0.1040 -6.8913
v  9.9456 -0.1040 7.0587
v  -11.0086 2.9934 -10.8999
v  -11.0086 2.9934 11.0673
v  9.9456 -8.0196 -9.9378
v  9.9456 -18.0000 -6.8913
v  9.9456 -18.0000 -9.9378
v  9.9456 -8.0196 -6.8913
v  6.8209 -18.0000 -9.9378
v  6.8209 -18.0000 -6.8913
v  6.8209 -8.0196 -9.9378
v  6.8209 -8.0196 -6.8913
v  9.9456 -8.0196 7.0587
v  9.9456 -18.0000 10.1052
v  9.9456 -18.0000 7.0587
v  9.9456 -8.0196 10.1052
v  6.8209 -18.0000 7.0587
v  6.8209 -18.0000 10.1052
v  6.8209 -8.0196 7.0587
v  6.8209 -8.0196 10.1052
v  -7.1486 -8.0196 -9.9378
v  -7.1486 -18.0000 -6.8913
v  -7.1486 -18.0000 -9.9378
v  -7.1486 -8.0196 -6.8913
v  -10.0896 -18.0000 -9.9378
v  -10.0896 -18.0000 -6.8913
v  -10.0896 -8.0196 -9.9378
v  -10.0896 -8.0196 -6.8913
v  -7.1486 3.8537 11.0673
v  -7.1486 3.8537 -10.8999
v  -7.1486 -8.0196 7.0587
v  -7.1486 -18.0000 10.1052
v  -7.1486 -18.0000 7.0587
v  -7.1486 -8.0196 10.1052
v  -10.0896 -18.0000 7.0587
v  -10.0896 -18.0000 10.1052
v  -10.0896 -8.0196 7.0587
v  -10.0896 -8.0196 10.1052
v  -16.1553 24.8471 11.0673
v  -16.1553 24.8471 -10.8999
v  -11.0086 25.8795 -10.8999
v  -11.0086 25.8795 11.0673
# 62 vertices

vn 0.7071 -0.0000 -0.7071
vn 1.0000 0.0000 -0.0000
vn 0.5774 -0.5774 -0.5774
vn 0.7071 -0.7071 0.0000
vn 0.0000 -1.0000 0.0000
vn 0.3015 -0.9045 -0.3015
vn 0.0000 -0.9487 -0.3162
vn 0.3162 -0.9487 0.0000
vn 0.0000 -0.0292 -0.9996
vn 0.3039 -0.9029 -0.3039
vn 0.3075 -0.9224 0.2339
vn 0.3072 -0.9215 0.2376
vn 0.0000 -0.9487 0.3162
vn 0.0000 -0.9693 -0.2458
vn -0.4130 -0.8117 0.4130
vn 0.0000 -0.0292 0.9996
vn 0.3190 -0.9477 0.0000
vn -1.0000 0.0000 -0.0000
vn -0.7071 0.0000 0.7071
vn -0.9933 -0.1154 0.0000
vn -0.6746 -0.0784 0.7340
vn 0.0000 -0.0000 -1.0000
vn 0.7006 -0.7006 -0.1353
vn -0.7071 -0.0000 -0.7071
vn -0.9954 -0.0000 -0.0961
vn -0.7506 0.0000 0.6608
vn 0.0000 0.0000 1.0000
vn 0.8500 -0.0000 -0.5267
vn 0.0000 -0.7071 -0.7071
vn -0.8944 -0.0000 -0.4472
vn -0.9725 -0.0000 -0.2328
vn 0.0000 0.7071 0.7071
vn 0.0000 0.3270 0.9450
vn 0.0000 1.0000 -0.0000
vn 0.7013 -0.7013 -0.1279
vn -0.9959 -0.0000 -0.0908
vn -0.7482 0.0000 0.6635
vn -0.6881 0.4418 0.5756
vn -0.8415 0.5403 -0.0000
vn -0.1967 0.9805 -0.0000
vn -0.1402 0.6987 0.7015
vn 0.7019 0.1230 -0.7015
vn 0.9850 0.1726 -0.0000
vn 0.3221 0.0565 -0.9450
# 44 vertex normals

vt 0.1964 -0.2219 0.0000
vt 0.0536 -0.6788 0.0000
vt 0.2192 -0.2682 0.0000
vt 0.0893 -0.7252 0.0000
vt 0.3620 -0.3411 0.0000
vt 0.3263 -0.3411 0.0000
vt 0.3490 -0.3609 0.0000
vt 0.2419 -0.2947 0.0000
vt 0.3003 -0.4338 0.0000
vt 0.8620 -0.3411 0.0000
vt 0.7192 -0.2947 0.0000
vt 0.7419 -0.2947 0.0000
vt 0.2192 -0.2947 0.0000
vt 0.2094 -0.3609 0.0000
vt 0.3263 -0.4338 0.0000
vt 0.2419 -0.7053 0.0000
vt 0.2192 -0.7053 0.0000
vt 0.2094 -0.7781 0.0000
vt 0.2192 -0.7980 0.0000
vt 0.1250 -0.7252 0.0000
vt 0.1477 -0.6589 0.0000
vt 0.6250 -0.7252 0.0000
vt 0.5990 -0.7053 0.0000
vt 0.7192 -0.7980 0.0000
vt 0.0990 -0.7053 0.0000
vt 0.2192 -0.3940 0.0000
vt 0.1250 -0.6324 0.0000
vt 0.8263 -0.2947 0.0000
vt 0.6964 -0.7517 0.0000
vt 0.2906 -0.3940 0.0000
vt 0.3490 -0.5596 0.0000
vt 0.3750 -0.5132 0.0000
vt 0.2679 -0.4603 0.0000
vt 0.3847 -0.5331 0.0000
vt 0.3750 -0.5596 0.0000
vt 0.3003 -0.3940 0.0000
vt 0.8750 -0.5132 0.0000
vt 0.8847 -0.5331 0.0000
vt 0.8003 -0.3940 0.0000
vt 0.8750 -0.5596 0.0000
vt 0.7906 -0.4603 0.0000
vt 0.7192 -0.3940 0.0000
vt 0.7679 -0.4603 0.0000
vt 0.8490 -0.5596 0.0000
vt 0.2906 -0.4603 0.0000
vt 0.7094 -0.3609 0.0000
vt 0.1964 -0.7252 0.0000
vt 0.2419 -0.9238 0.0000
vt 0.2679 -0.8775 0.0000
vt 0.1737 -0.7980 0.0000
vt 0.2776 -0.8775 0.0000
vt 0.2679 -0.9238 0.0000
vt 0.2094 -0.7517 0.0000
vt 0.6964 -0.7252 0.0000
vt 0.7094 -0.7517 0.0000
vt 0.6477 -0.6589 0.0000
vt 0.7776 -0.8775 0.0000
vt 0.7679 -0.9238 0.0000
vt 0.6964 -0.8245 0.0000
vt 0.6737 -0.7980 0.0000
vt 0.7419 -0.9238 0.0000
vt 0.3977 -0.4603 0.0000
vt 0.4562 -0.6060 0.0000
vt 0.4821 -0.5596 0.0000
vt 0.4919 -0.5596 0.0000
vt 0.4821 -0.6324 0.0000
vt 0.4107 -0.4603 0.0000
vt 0.9919 -0.5596 0.0000
vt 0.9821 -0.6324 0.0000
vt 0.9107 -0.4603 0.0000
vt 0.8977 -0.5331 0.0000
vt 0.8490 -0.3609 0.0000
vt 0.8263 -0.4338 0.0000
vt 0.9562 -0.6060 0.0000
vt 0.8003 -0.4338 0.0000
vt 0.5536 -0.6788 0.0000
vt 0.6737 -0.7252 0.0000
vt 0.7906 -0.2682 0.0000
vt 0.6964 -0.2219 0.0000
vt 0.2906 -0.7980 0.0000
vt 0.3490 -0.9901 0.0000
vt 0.3750 -0.9238 0.0000
vt 0.3847 -0.9503 0.0000
vt 0.3750 -0.9901 0.0000
vt 0.3003 -0.7980 0.0000
vt 0.8750 -0.9238 0.0000
vt 0.8847 -0.9503 0.0000
vt 0.8003 -0.7980 0.0000
vt 0.8750 -0.9901 0.0000
vt 0.7906 -0.8775 0.0000
vt 0.7419 -0.7053 0.0000
vt 0.7679 -0.8775 0.0000
vt 0.8490 -0.9901 0.0000
vt 0.2906 -0.8775 0.0000
vt 0.7094 -0.7781 0.0000
vt 0.5406 -0.5331 0.0000
vt 0.6834 -0.0497 0.0000
vt 0.6477 -0.0298 0.0000
vt 0.5081 -0.5132 0.0000
vt 0.1477 -0.0298 0.0000
vt 0.0081 -0.5132 0.0000
vt 0.2906 -0.2682 0.0000
vt 0.1737 -0.7252 0.0000
vt 0.1834 -0.0497 0.0000
vt 0.3263 -0.2947 0.0000
vt 0.5893 -0.7252 0.0000
# 106 texture coords

g mesh0
usemtl Material__25
s 1
f 1/1/1 2/2/2 3/3/3 
f 2/2/2 4/4/4 3/3/3 
f 5/5/5 6/6/6 7/7/7 
f 5/5/5 8/8/5 6/6/6 
f 6/6/6 8/8/5 9/9/8 
f 5/10/5 10/11/5 8/12/5 
f 5/5/9 3/3/3 10/13/10 
f 10/13/10 3/3/3 11/14/11 
f 3/3/3 4/4/4 11/14/11 
f 7/7/7 12/15/5 5/5/5 
f 12/15/5 9/9/8 13/16/7 
f 12/15/5 13/16/7 5/5/5 
f 9/9/8 8/8/5 14/17/6 
f 9/9/8 14/17/6 13/16/7 
f 14/17/6 8/8/5 15/18/12 
f 5/5/5 13/16/7 16/19/5 
f 17/19/13 15/18/12 16/19/5 
f 13/16/7 17/19/13 16/19/5 
f 15/18/12 18/20/5 16/19/5 
f 19/21/14 18/20/5 15/18/12 
f 18/22/15 20/23/16 16/24/5 
f 20/25/17 4/4/4 16/19/5 
f 8/8/5 21/26/13 15/18/12 
f 21/26/13 19/21/14 15/18/12 
f 21/26/13 11/14/11 19/21/14 
f 11/14/11 4/4/4 22/27/6 
f 22/27/6 4/4/4 20/25/17 
f 11/14/11 22/27/6 19/21/14 
f 5/10/18 16/24/19 23/28/20 
f 16/24/19 24/29/21 23/28/20 
f 10/13/10 25/30/1 8/8/22 
f 25/30/1 26/31/4 27/32/23 
f 25/30/1 28/33/2 26/31/4 
f 10/13/10 11/14/11 28/33/2 
f 10/13/10 28/33/2 25/30/1 
f 29/34/5 27/32/23 30/35/5 
f 27/32/23 26/31/4 30/35/5 
f 25/30/1 27/32/23 31/36/22 
f 25/30/1 31/36/22 8/8/22 
f 27/37/22 29/38/24 31/39/25 
f 29/38/24 30/40/19 31/39/25 
f 31/39/25 32/41/26 8/12/18 
f 30/40/19 32/41/26 31/39/25 
f 32/41/26 21/42/18 8/12/18 
f 32/41/26 30/40/19 28/43/27 
f 30/40/19 26/44/27 28/43/27 
f 21/26/13 32/45/27 11/14/11 
f 32/41/26 28/43/27 11/46/27 
f 22/27/6 33/47/28 19/21/14 
f 33/47/28 34/48/4 35/49/3 
f 22/27/6 36/50/2 33/47/28 
f 22/27/6 20/25/17 36/50/2 
f 33/47/28 36/50/2 34/48/4 
f 37/51/29 35/49/3 38/52/5 
f 35/49/3 34/48/4 38/52/5 
f 33/47/28 35/49/3 39/53/22 
f 35/49/3 37/51/29 39/53/22 
f 33/54/22 39/55/30 19/56/31 
f 37/57/18 38/58/19 39/55/30 
f 38/58/19 40/59/19 39/55/30 
f 39/55/30 40/59/19 19/56/31 
f 40/59/19 18/22/15 19/56/31 
f 18/22/15 40/59/19 20/23/16 
f 40/59/19 38/58/19 36/60/27 
f 40/59/19 36/60/27 20/23/16 
f 38/58/19 34/61/27 36/60/27 
f 6/6/6 41/62/1 7/7/7 
f 41/62/1 42/63/4 43/64/3 
f 6/6/6 9/9/8 44/32/2 
f 6/6/6 44/32/2 41/62/1 
f 41/62/1 44/32/2 42/63/4 
f 45/65/29 43/64/3 46/66/5 
f 43/64/3 42/63/4 46/66/5 
f 41/62/1 47/67/22 7/7/7 
f 41/62/1 43/64/3 47/67/22 
f 43/64/3 45/65/29 47/67/22 
f 45/68/18 46/69/19 47/70/18 
f 46/69/19 48/71/19 47/70/18 
f 47/70/18 48/71/19 7/72/18 
f 48/71/19 12/73/19 7/72/18 
f 48/71/19 46/69/19 44/37/27 
f 46/69/19 42/74/27 44/37/27 
f 48/71/19 44/37/27 9/75/27 
f 12/73/19 48/71/19 9/75/27 
f 24/29/21 16/24/19 2/76/32 
f 49/77/33 24/29/21 2/76/32 
f 49/77/33 2/76/32 50/78/34 
f 2/76/32 1/79/34 50/78/34 
f 14/17/6 51/80/1 13/16/7 
f 51/80/1 52/81/4 53/82/35 
f 14/17/6 54/49/2 51/80/1 
f 14/17/6 15/18/12 54/49/2 
f 51/80/1 54/49/2 52/81/4 
f 55/83/5 53/82/35 56/84/5 
f 53/82/35 52/81/4 56/84/5 
f 51/80/1 57/85/22 13/16/7 
f 51/80/1 53/82/35 57/85/22 
f 53/86/22 55/87/24 57/88/36 
f 55/87/24 56/89/19 57/88/36 
f 56/89/19 58/90/37 57/88/36 
f 57/88/36 58/90/37 13/91/18 
f 58/90/37 17/24/18 13/91/18 
f 58/90/37 56/89/19 54/92/27 
f 56/89/19 52/93/27 54/92/27 
f 17/19/13 58/94/27 15/18/12 
f 58/90/37 54/92/27 15/95/27 
f 23/28/20 24/29/21 59/96/38 
f 59/96/38 24/29/21 49/77/33 
f 23/28/20 59/96/38 60/97/39 
f 60/97/39 59/96/38 61/98/40 
f 59/96/38 49/77/33 62/99/41 
f 59/96/38 62/99/41 61/98/40 
f 61/100/42 62/101/43 50/102/44 
f 62/101/43 49/103/43 50/102/44 
f 61/100/42 50/102/44 60/104/22 
f 1/1/1 3/3/3 23/105/22 
f 50/102/44 23/105/22 60/104/22 
f 1/1/1 23/105/22 50/102/44 
f 3/3/3 5/5/9 23/105/22 
f 16/24/19 4/106/27 2/76/32 
# 0 polygons - 120 triangles

