# 3ds Max Wavefront OBJ Exporter v0.97b - (c)2007 guruware
# File Created: 14.12.2023 23:33:23

#
# object mine
#

v  -3.9645 2.5000 7.5000
v  3.9645 2.5000 7.5000
v  7.5000 2.5000 3.9645
v  3.9645 2.5000 -7.5000
v  7.5000 2.5000 -3.9645
v  -3.9645 2.5000 -7.5000
v  -7.5000 2.5000 -3.9645
v  -7.5000 2.5000 3.9645
v  -5.0000 -2.5000 10.0000
v  5.0000 -2.5000 10.0000
v  5.0000 0.0000 10.0000
v  -5.0000 0.0000 10.0000
v  10.0000 -2.5000 5.0000
v  10.0000 -2.5000 -5.0000
v  10.0000 0.0000 -5.0000
v  10.0000 0.0000 5.0000
v  5.0000 -2.5000 -10.0000
v  -5.0000 -2.5000 -10.0000
v  -5.0000 0.0000 -10.0000
v  5.0000 0.0000 -10.0000
v  -10.0000 -2.5000 -5.0000
v  -10.0000 -2.5000 5.0000
v  -10.0000 0.0000 5.0000
v  -10.0000 0.0000 -5.0000
# 24 vertices

vn 0.0000 1.0000 -0.0000
vn 0.0000 0.0000 1.0000
vn 1.0000 0.0000 -0.0000
vn 0.0000 0.0000 -1.0000
vn -1.0000 0.0000 -0.0000
vn 0.7071 0.0000 0.7071
vn -0.7071 0.0000 0.7071
vn 0.7071 0.0000 -0.7071
vn -0.7071 0.0000 -0.7071
vn 0.0000 0.7071 0.7071
vn 0.7071 0.7071 -0.0000
vn 0.0000 0.7071 -0.7071
vn -0.7071 0.7071 -0.0000
vn -0.5000 0.7071 0.5000
vn 0.5000 0.7071 0.5000
vn -0.5000 0.7071 -0.5000
vn 0.5000 0.7071 -0.5000
# 17 vertex normals

vt 0.4207 0.3500 0.6000
vt 0.5793 0.3500 0.6000
vt 0.6500 0.4207 0.6000
vt 0.5793 0.6500 0.6000
vt 0.6500 0.5793 0.6000
vt 0.4207 0.6500 0.6000
vt 0.3500 0.5793 0.6000
vt 0.3500 0.4207 0.6000
vt 0.4000 0.5000 0.3000
vt 0.6000 0.5000 0.3000
vt 0.6000 0.5500 0.3000
vt 0.4000 0.5500 0.3000
vt 0.4000 0.5000 0.7000
vt 0.6000 0.5000 0.7000
vt 0.6000 0.5500 0.7000
vt 0.4000 0.5500 0.7000
vt 0.7000 0.5000 0.4000
vt 0.7000 0.5500 0.4000
vt 0.7000 0.5000 0.6000
vt 0.7000 0.5500 0.6000
vt 0.4207 0.6000 0.3500
vt 0.5793 0.6000 0.3500
vt 0.4207 0.6000 0.6500
vt 0.5793 0.6000 0.6500
vt 0.4000 0.3000 0.5500
vt 0.3000 0.4000 0.5500
vt 0.7000 0.4000 0.5500
vt 0.6000 0.3000 0.5500
vt 0.3000 0.6000 0.5500
vt 0.4000 0.7000 0.5500
vt 0.6000 0.7000 0.5500
vt 0.7000 0.6000 0.5500
# 32 texture coords

g mine
usemtl Material__25
s 4
f 1/1/1 2/2/1 3/3/1 4/4/1 
f 3/3/1 5/5/1 4/4/1 
f 4/4/1 6/6/1 7/7/1 1/1/1 
f 8/8/1 1/1/1 7/7/1 
s 8
f 9/9/2 10/10/2 11/11/2 12/12/2 
s 16
f 13/13/3 14/14/3 15/15/3 16/16/3 
s 32
f 17/13/4 18/14/4 19/15/4 20/16/4 
s 64
f 21/9/5 22/10/5 23/11/5 24/12/5 
s off
f 10/10/6 13/17/6 16/18/6 11/11/6 
f 12/18/7 23/11/7 22/10/7 9/17/7 
f 14/14/8 17/19/8 20/20/8 15/15/8 
f 18/14/9 21/19/9 24/20/9 19/15/9 
f 1/21/10 12/12/10 11/11/10 2/22/10 
f 3/23/11 16/16/11 15/15/11 5/24/11 
f 4/23/12 20/16/12 19/15/12 6/24/12 
f 7/21/13 24/12/13 23/11/13 8/22/13 
f 12/25/14 1/1/14 8/8/14 23/26/14 
f 16/27/15 3/3/15 2/2/15 11/28/15 
f 24/29/16 7/7/16 6/6/16 19/30/16 
f 20/31/17 4/4/17 5/5/17 15/32/17 
# 18 polygons - 2 triangles

