# 3ds Max Wavefront OBJ Exporter v0.97b - (c)2007 guruware
# File Created: 10.10.2023 21:12:12

#
# object missle
#

v  -44.3281 23.7024 0.0743
v  11.4364 8.6457 0.0743
v  -34.5549 7.7853 -2.8471
v  -34.5549 7.7853 3.3203
v  -44.3281 -0.3883 25.0684
v  -35.1298 -3.3997 8.1893
v  16.6105 -0.3883 8.1893
v  -35.1298 2.6230 8.1893
v  -48.3524 -0.3883 8.1893
v  -44.3281 -0.3883 -24.9198
v  -48.3524 -0.3883 -7.7161
v  -35.1298 2.6230 -7.7161
v  16.6105 -0.3883 -7.7161
v  -47.2026 8.6457 0.0743
v  -35.1298 -3.3997 -7.7161
v  -50.0770 -4.2601 -7.7161
v  -50.0770 -9.4224 0.0743
v  -61.0000 -8.1318 0.0743
v  -61.0000 -4.2601 -6.7423
v  -61.0000 3.9136 -6.7423
v  -50.0770 3.9136 -7.7161
v  -50.0770 8.6457 0.0743
v  -61.0000 7.7853 0.0743
v  -61.0000 3.9136 7.2155
v  -50.0770 3.9136 8.1893
v  -50.0770 -4.2601 8.1893
v  -61.0000 -4.2601 7.2155
v  60.8772 -10.2828 0.0743
v  60.8772 -5.1205 -7.7161
v  60.8772 4.7740 -7.7161
v  60.8772 9.9363 0.0743
v  60.8772 4.7740 8.1893
v  60.8772 -5.1205 8.1893
v  85.5976 -0.3883 0.0743
# 34 vertices

vn -0.0817 0.1312 -0.9880
vn 0.0579 0.2145 -0.9750
vn -0.0292 0.1631 -0.9862
vn -0.0905 0.1454 0.9852
vn -0.0255 0.5619 0.8268
vn 0.0109 0.9992 0.0384
vn -0.0774 -0.9879 0.1341
vn -0.0380 -0.9871 0.1554
vn 0.0569 -0.9770 0.2053
vn -0.0774 0.9879 0.1341
vn -0.0236 0.6133 0.7895
vn -0.0492 0.2159 0.9752
vn -0.0760 0.9883 -0.1323
vn -0.2218 0.9737 -0.0519
vn -0.0387 0.9876 -0.1522
vn 0.0025 0.0433 0.9991
vn 0.0569 0.9778 -0.2016
vn -0.2217 -0.9737 0.0529
vn -0.2221 0.0424 -0.9741
vn -0.0804 0.9332 0.3502
vn -0.0760 -0.9883 -0.1323
vn 0.0026 -0.0441 -0.9990
vn -0.0241 -0.6145 -0.7885
vn -0.0493 -0.2165 -0.9750
vn -0.0485 -0.4719 -0.8803
vn -0.0529 -0.9985 -0.0157
vn -0.0989 -0.9948 -0.0264
vn -0.0762 -0.5143 -0.8542
vn -0.0888 -0.0000 -0.9960
vn -0.0443 -0.0000 -0.9990
vn -0.0429 0.8468 -0.5302
vn -0.7987 0.5193 -0.3039
vn -0.0442 0.9990 -0.0010
vn -0.6418 0.7668 -0.0078
vn -0.6392 0.3986 0.6576
vn -0.0495 0.4864 0.8723
vn -0.0443 0.0000 0.9990
vn -0.8158 0.0000 0.5783
vn -0.0781 -0.8608 0.5028
vn -0.0267 -0.8434 0.5366
vn 0.1743 -0.9847 -0.0087
vn 0.1652 -0.4695 -0.8674
vn 0.0000 -0.0000 -1.0000
vn 0.2270 0.2896 -0.9298
vn -0.0189 0.8387 -0.5443
vn 0.1019 0.9790 0.1764
vn -0.0128 0.8109 -0.5850
vn 0.1694 0.4800 0.8608
vn 0.0000 0.0000 1.0000
vn 0.1487 0.0000 0.9889
vn 0.1496 -0.8343 0.5307
vn 0.3617 0.4390 0.8225
vn -1.0000 0.0000 -0.0000
vn 0.5952 -0.3818 -0.7071
vn 0.3288 0.7872 -0.5217
# 55 vertex normals

vt 0.6571 0.2706 0.0000
vt 0.7449 0.5696 0.0000
vt 0.6064 0.2809 0.0000
vt 0.1571 0.2706 0.0000
vt 0.1267 0.2809 0.0000
vt 0.2449 0.5696 0.0000
vt 0.7145 0.1624 0.0000
vt 0.6875 0.1985 0.0000
vt 0.8226 0.5438 0.0000
vt 0.2145 0.1624 0.0000
vt 0.1639 0.2448 0.0000
vt 0.1334 0.1366 0.0000
vt 0.0220 0.2964 0.0000
vt 0.0321 0.1160 0.0000
vt 0.0861 0.2448 0.0000
vt 0.3226 0.5438 0.0000
vt 0.2348 0.5593 0.0000
vt 0.6334 0.1366 0.0000
vt 0.5760 0.2088 0.0000
vt 0.0760 0.2088 0.0000
vt 0.5220 0.2964 0.0000
vt 0.7348 0.5593 0.0000
vt 0.6098 0.1985 0.0000
vt 0.5321 0.1160 0.0000
vt 0.5760 0.0954 0.0000
vt 0.6233 0.0644 0.0000
vt 0.5895 0.0077 0.0000
vt 0.5456 0.0284 0.0000
vt 0.5186 0.0799 0.0000
vt 0.5456 0.1521 0.0000
vt 0.0456 0.1521 0.0000
vt 0.0186 0.0799 0.0000
vt 0.0625 0.1881 0.0000
vt 0.0355 0.1108 0.0000
vt 0.0828 0.0799 0.0000
vt 0.1166 0.1521 0.0000
vt 0.1436 0.0954 0.0000
vt 0.1064 0.0284 0.0000
vt 0.6064 0.0284 0.0000
vt 0.6436 0.0954 0.0000
vt 0.9443 0.7603 0.0000
vt 0.8970 0.7964 0.0000
vt 0.5861 0.2448 0.0000
vt 0.8699 0.8582 0.0000
vt 0.3699 0.8582 0.0000
vt 0.3868 0.8840 0.0000
vt 0.1064 0.2809 0.0000
vt 0.4375 0.8582 0.0000
vt 0.1875 0.1985 0.0000
vt 0.4679 0.7964 0.0000
vt 0.9679 0.7964 0.0000
vt 0.4882 0.9820 0.0000
vt 0.0456 0.0284 0.0000
vt 0.0895 0.0077 0.0000
vt 0.9882 0.9820 0.0000
vt 0.8868 0.8840 0.0000
# 56 texture coords

g missle
usemtl Material__25
s 1
f 1/1/1 2/2/2 3/3/3 
f 1/4/4 4/5/5 2/6/6 
f 5/7/7 6/8/8 7/9/9 
f 5/10/10 8/11/11 9/12/12 
f 10/13/13 11/14/14 12/15/15 
f 5/10/10 7/16/16 8/11/11 
f 10/13/13 12/15/15 13/17/17 
f 5/7/7 9/18/18 6/8/8 
f 1/1/1 3/3/3 14/19/19 
f 1/4/4 14/20/20 4/5/5 
f 10/21/21 13/22/22 15/23/23 
f 10/21/21 15/23/23 11/24/24 
f 16/25/25 11/24/24 15/23/23 
f 17/26/26 18/27/27 16/25/25 
f 18/27/27 19/28/28 16/25/25 
f 19/28/28 20/29/29 16/25/25 
f 16/25/25 21/30/30 11/24/24 
f 20/29/29 21/30/30 16/25/25 
f 21/31/31 20/32/32 22/33/33 
f 20/32/32 23/34/34 22/33/33 
f 22/33/33 23/34/34 24/35/35 
f 14/20/20 25/36/36 4/5/5 
f 7/16/16 25/36/36 8/11/11 
f 14/20/20 22/33/33 25/36/36 
f 8/11/11 25/36/36 9/12/12 
f 22/33/33 24/35/35 25/36/36 
f 26/37/37 25/36/36 24/35/35 
f 9/12/12 25/36/36 26/37/37 
f 27/38/38 24/35/35 23/34/34 
f 26/37/37 24/35/35 27/38/38 
f 27/39/39 18/27/27 17/26/26 
f 26/40/40 27/39/39 17/26/26 
f 26/40/40 17/26/26 28/41/41 
f 17/26/26 16/25/25 29/42/42 
f 15/23/23 13/22/22 29/42/42 
f 28/41/41 17/26/26 29/42/42 
f 16/25/25 15/23/23 29/42/42 
f 12/43/43 21/30/30 13/22/22 
f 11/24/24 21/30/30 12/43/43 
f 13/22/22 30/44/44 29/42/42 
f 21/30/30 30/44/44 13/22/22 
f 30/45/45 2/6/6 31/46/46 
f 30/45/45 3/47/47 2/6/6 
f 3/47/47 22/33/33 14/20/20 
f 30/45/45 21/31/31 3/47/47 
f 3/47/47 21/31/31 22/33/33 
f 31/46/46 2/6/6 32/48/48 
f 7/16/16 32/48/48 25/36/36 
f 2/6/6 4/5/5 32/48/48 
f 4/5/5 25/36/36 32/48/48 
f 6/49/49 9/12/12 26/37/37 
f 33/50/50 7/16/16 6/49/49 
f 33/50/50 6/49/49 26/37/37 
f 33/50/50 32/48/48 7/16/16 
f 33/51/51 26/40/40 28/41/41 
f 32/48/48 33/50/50 34/52/52 
f 34/52/52 31/46/46 32/48/48 
f 19/53/53 23/34/34 20/32/32 
f 18/54/53 27/38/38 23/34/34 
f 19/53/53 18/54/53 23/34/34 
f 34/55/54 29/42/42 30/44/44 
f 34/55/54 28/41/41 29/42/42 
f 34/55/54 33/51/51 28/41/41 
f 34/55/54 30/44/44 31/56/55 
# 0 polygons - 64 triangles

