# 3ds Max Wavefront OBJ Exporter v0.97b - (c)2007 guruware
# File Created: 11.10.2023 19:02:26

#
# object spin
#

v  -10.0000 -1.0000 -0.0000
v  -8.6018 -1.0000 3.3756
v  -8.6018 1.0000 3.3756
v  -10.0000 1.0000 -0.0000
v  -3.3755 -1.0000 8.6018
v  0.0000 -1.0000 10.0000
v  0.0000 1.0000 10.0000
v  -3.3755 1.0000 8.6018
v  -16.4849 -1.0000 13.8773
v  -13.8773 -1.0000 16.4849
v  -13.8773 1.0000 16.4849
v  -16.4849 1.0000 13.8773
v  -14.3635 -1.0000 11.7560
v  -14.3635 1.0000 11.7560
v  -11.7559 -1.0000 14.3635
v  -11.7559 1.0000 14.3635
v  -16.4849 1.0000 9.6346
v  -16.4849 -1.0000 9.6346
v  -18.6062 -1.0000 11.7560
v  -18.6062 1.0000 11.7560
v  -9.6346 -1.0000 16.4849
v  -9.6346 1.0000 16.4849
v  -11.7559 1.0000 18.6062
v  -11.7559 -1.0000 18.6062
v  0.0000 -1.0000 -0.0000
v  10.0000 -1.0000 -0.0000
v  10.0000 1.0000 -0.0000
v  8.6018 1.0000 3.3756
v  8.6018 -1.0000 3.3756
v  3.3755 -1.0000 8.6018
v  3.3755 1.0000 8.6018
v  16.4849 -1.0000 13.8773
v  16.4849 1.0000 13.8773
v  13.8773 1.0000 16.4849
v  13.8773 -1.0000 16.4849
v  14.3635 1.0000 11.7560
v  14.3635 -1.0000 11.7560
v  11.7559 -1.0000 14.3635
v  11.7559 1.0000 14.3635
v  16.4849 1.0000 9.6346
v  18.6062 1.0000 11.7560
v  18.6062 -1.0000 11.7560
v  16.4849 -1.0000 9.6346
v  9.6346 -1.0000 16.4849
v  11.7559 -1.0000 18.6062
v  11.7559 1.0000 18.6062
v  9.6346 1.0000 16.4849
v  0.0000 1.0000 -0.0000
v  -8.6018 1.0000 -3.3756
v  -8.6018 -1.0000 -3.3756
v  -3.3755 -1.0000 -8.6018
v  -3.3755 1.0000 -8.6018
v  -0.0000 1.0000 -10.0000
v  0.0000 -1.0000 -10.0000
v  -16.4849 -1.0000 -13.8773
v  -16.4849 1.0000 -13.8773
v  -13.8773 1.0000 -16.4849
v  -13.8773 -1.0000 -16.4849
v  -14.3635 1.0000 -11.7560
v  -14.3635 -1.0000 -11.7560
v  -11.7559 -1.0000 -14.3635
v  -11.7559 1.0000 -14.3635
v  -16.4849 1.0000 -9.6346
v  -18.6062 1.0000 -11.7560
v  -18.6062 -1.0000 -11.7560
v  -16.4849 -1.0000 -9.6346
v  -9.6346 -1.0000 -16.4849
v  -11.7559 -1.0000 -18.6062
v  -11.7559 1.0000 -18.6062
v  -9.6346 1.0000 -16.4849
v  8.6018 -1.0000 -3.3756
v  8.6018 1.0000 -3.3756
v  3.3755 -1.0000 -8.6018
v  3.3755 1.0000 -8.6018
v  16.4849 -1.0000 -13.8773
v  13.8773 -1.0000 -16.4849
v  13.8773 1.0000 -16.4849
v  16.4849 1.0000 -13.8773
v  14.3635 -1.0000 -11.7560
v  14.3635 1.0000 -11.7560
v  11.7559 -1.0000 -14.3635
v  11.7559 1.0000 -14.3635
v  16.4849 1.0000 -9.6346
v  16.4849 -1.0000 -9.6346
v  18.6062 -1.0000 -11.7560
v  18.6062 1.0000 -11.7560
v  9.6346 -1.0000 -16.4849
v  9.6346 1.0000 -16.4849
v  11.7559 1.0000 -18.6062
v  11.7559 -1.0000 -18.6062
# 90 vertices

vn -1.0000 0.0000 -0.0000
vn -0.9239 0.0000 0.3827
vn -0.3827 0.0000 0.9239
vn 0.0000 0.0000 1.0000
vn -0.7071 0.0000 0.7071
vn -0.8240 0.0000 -0.5665
vn 0.0000 -1.0000 -0.0000
vn 0.5665 0.0000 0.8240
vn 0.0000 1.0000 -0.0000
vn -0.7071 0.0000 -0.7071
vn 0.7071 0.0000 0.7071
vn 0.7071 0.0000 -0.7071
vn 1.0000 -0.0000 -0.0000
vn 1.0000 0.0000 -0.0000
vn 0.9239 0.0000 0.3827
vn 0.3827 0.0000 0.9239
vn 0.8240 0.0000 -0.5665
vn -0.5665 0.0000 0.8240
vn -0.9239 -0.0000 -0.3827
vn -0.9239 0.0000 -0.3827
vn -0.3827 -0.0000 -0.9239
vn -0.3827 0.0000 -0.9239
vn -0.0000 0.0000 -1.0000
vn 0.0000 0.0000 -1.0000
vn -0.8240 0.0000 0.5665
vn 0.5665 0.0000 -0.8240
vn 0.9239 0.0000 -0.3827
vn 0.9239 -0.0000 -0.3827
vn 0.3827 0.0000 -0.9239
vn 0.8240 0.0000 0.5665
vn -0.5665 0.0000 -0.8240
# 31 vertex normals

vt 0.5000 0.4750 0.2500
vt 0.5844 0.4750 0.2850
vt 0.5844 0.5250 0.2850
vt 0.5000 0.5250 0.2500
vt 0.4156 0.4750 0.2850
vt 0.4156 0.5250 0.2850
vt 0.8469 0.4750 0.0879
vt 0.9121 0.4750 0.1531
vt 0.9121 0.5250 0.1531
vt 0.8469 0.5250 0.0879
vt 0.7939 0.4750 0.1409
vt 0.7939 0.5250 0.1409
vt 0.7150 0.4156 0.4750
vt 0.5844 0.2850 0.4750
vt 0.7939 0.1409 0.4750
vt 0.8591 0.2061 0.4750
vt 0.2061 0.5250 0.1409
vt 0.2061 0.4750 0.1409
vt 0.4156 0.2850 0.5250
vt 0.2850 0.4156 0.5250
vt 0.1409 0.2061 0.5250
vt 0.2061 0.1409 0.5250
vt 0.9121 0.5250 0.2591
vt 0.9121 0.4750 0.2591
vt 0.9652 0.4750 0.2061
vt 0.9652 0.5250 0.2061
vt 0.8469 0.0879 0.4750
vt 0.9121 0.1531 0.4750
vt 0.2591 0.4750 0.0879
vt 0.2591 0.5250 0.0879
vt 0.2061 0.5250 0.0348
vt 0.2061 0.4750 0.0348
vt 0.0879 0.1531 0.5250
vt 0.1531 0.0879 0.5250
vt 0.9652 0.2061 0.4750
vt 0.9121 0.2591 0.4750
vt 0.7939 0.5250 0.0348
vt 0.7939 0.4750 0.0348
vt 0.0879 0.2591 0.5250
vt 0.0348 0.2061 0.5250
vt 0.1409 0.4750 0.2061
vt 0.1409 0.5250 0.2061
vt 0.0879 0.5250 0.2591
vt 0.0879 0.4750 0.2591
vt 0.2061 0.0348 0.5250
vt 0.2591 0.0879 0.5250
vt 0.7409 0.0879 0.4750
vt 0.7939 0.0348 0.4750
vt 0.7500 0.5000 0.4750
vt 0.5000 0.5000 0.4750
vt 0.5000 0.2500 0.4750
vt 0.5000 0.4750 0.7500
vt 0.5000 0.5250 0.7500
vt 0.4156 0.5250 0.7150
vt 0.4156 0.4750 0.7150
vt 0.2061 0.5250 0.8591
vt 0.2061 0.4750 0.8591
vt 0.2850 0.4156 0.4750
vt 0.1409 0.2061 0.4750
vt 0.2061 0.1409 0.4750
vt 0.4156 0.2850 0.4750
vt 0.5844 0.2850 0.5250
vt 0.7939 0.1409 0.5250
vt 0.8591 0.2061 0.5250
vt 0.7150 0.4156 0.5250
vt 0.2591 0.5250 0.9121
vt 0.2061 0.5250 0.9652
vt 0.2061 0.4750 0.9652
vt 0.2591 0.4750 0.9121
vt 0.0879 0.1531 0.4750
vt 0.1531 0.0879 0.4750
vt 0.9121 0.4750 0.7409
vt 0.9652 0.4750 0.7939
vt 0.9652 0.5250 0.7939
vt 0.9121 0.5250 0.7409
vt 0.8469 0.0879 0.5250
vt 0.9121 0.1531 0.5250
vt 0.0879 0.2591 0.4750
vt 0.0348 0.2061 0.4750
vt 0.9652 0.2061 0.5250
vt 0.9121 0.2591 0.5250
vt 0.7409 0.0879 0.5250
vt 0.7939 0.0348 0.5250
vt 0.2061 0.0348 0.4750
vt 0.2591 0.0879 0.4750
vt 0.2500 0.5000 0.4750
vt 0.5000 0.2500 0.5250
vt 0.5000 0.5000 0.5250
vt 0.2500 0.5000 0.5250
vt 0.7500 0.5000 0.5250
vt 0.5844 0.4750 0.7150
vt 0.5844 0.5250 0.7150
vt 0.9121 0.4750 0.8469
vt 0.9121 0.5250 0.8469
vt 0.8469 0.5250 0.9121
vt 0.8469 0.4750 0.9121
vt 0.7150 0.5844 0.4750
vt 0.8591 0.7939 0.4750
vt 0.7939 0.8591 0.4750
vt 0.5844 0.7150 0.4750
vt 0.7939 0.4750 0.8591
vt 0.7939 0.5250 0.8591
vt 0.4156 0.7150 0.5250
vt 0.2061 0.8591 0.5250
vt 0.1409 0.7939 0.5250
vt 0.2850 0.5844 0.5250
vt 0.9121 0.8469 0.4750
vt 0.8469 0.9121 0.4750
vt 0.1531 0.9121 0.5250
vt 0.0879 0.8469 0.5250
vt 0.1409 0.5250 0.7939
vt 0.0879 0.5250 0.7409
vt 0.0879 0.4750 0.7409
vt 0.1409 0.4750 0.7939
vt 0.9121 0.7409 0.4750
vt 0.9652 0.7939 0.4750
vt 0.0348 0.7939 0.5250
vt 0.0879 0.7409 0.5250
vt 0.2591 0.9121 0.5250
vt 0.2061 0.9652 0.5250
vt 0.7939 0.5250 0.9652
vt 0.7939 0.4750 0.9652
vt 0.7939 0.9652 0.4750
vt 0.7409 0.9121 0.4750
vt 0.5000 0.7500 0.4750
vt 0.2850 0.5844 0.4750
vt 0.4156 0.7150 0.4750
vt 0.2061 0.8591 0.4750
vt 0.1409 0.7939 0.4750
vt 0.5844 0.7150 0.5250
vt 0.7150 0.5844 0.5250
vt 0.8591 0.7939 0.5250
vt 0.7939 0.8591 0.5250
vt 0.1531 0.9121 0.4750
vt 0.0879 0.8469 0.4750
vt 0.9121 0.8469 0.5250
vt 0.8469 0.9121 0.5250
vt 0.0348 0.7939 0.4750
vt 0.0879 0.7409 0.4750
vt 0.9121 0.7409 0.5250
vt 0.9652 0.7939 0.5250
vt 0.7939 0.9652 0.5250
vt 0.7409 0.9121 0.5250
vt 0.2591 0.9121 0.4750
vt 0.2061 0.9652 0.4750
vt 0.5000 0.7500 0.5250
# 146 texture coords

g spin
usemtl Material__25
s 8
f 1/1/1 2/2/2 3/3/2 4/4/1 
f 5/5/3 6/1/4 7/4/4 8/6/3 
f 9/7/5 10/8/5 11/9/5 12/10/5 
s off
f 3/3/6 2/2/6 13/11/6 14/12/6 
f 2/13/7 5/14/7 15/15/7 13/16/7 
f 5/5/8 8/6/8 16/17/8 15/18/8 
f 8/19/9 3/20/9 14/21/9 16/22/9 
f 17/23/10 18/24/10 19/25/10 20/26/10 
f 13/16/7 15/15/7 10/27/7 9/28/7 
f 21/29/11 22/30/11 23/31/11 24/32/11 
f 16/22/9 14/21/9 12/33/9 11/34/9 
f 14/17/12 13/18/12 18/29/12 17/30/12 
f 13/16/7 9/28/7 19/35/7 18/36/7 
f 9/7/5 12/10/5 20/37/5 19/38/5 
f 12/33/9 14/21/9 17/39/9 20/40/9 
f 15/41/12 16/42/12 22/43/12 21/44/12 
f 16/22/9 11/34/9 23/45/9 22/46/9 
f 11/9/5 10/8/5 24/25/5 23/26/5 
f 10/27/7 15/15/7 21/47/7 24/48/7 
s 1
f 2/13/7 1/49/7 25/50/7 5/14/7 
f 6/51/7 5/14/7 25/50/7 
s 8
f 26/52/13 27/53/14 28/54/15 29/55/15 
f 30/2/16 31/3/16 7/4/4 6/1/4 
f 32/8/11 33/9/11 34/10/11 35/7/11 
s off
f 28/54/17 36/56/17 37/57/17 29/55/17 
f 29/58/7 37/59/7 38/60/7 30/61/7 
f 30/2/18 38/11/18 39/12/18 31/3/18 
f 31/62/9 39/63/9 36/64/9 28/65/9 
f 40/66/12 41/67/12 42/68/12 43/69/12 
f 37/59/7 32/70/7 35/71/7 38/60/7 
f 44/72/5 45/73/5 46/74/5 47/75/5 
f 39/63/9 34/76/9 33/77/9 36/64/9 
f 36/42/10 40/43/10 43/44/10 37/41/10 
f 37/59/7 43/78/7 42/79/7 32/70/7 
f 32/8/11 42/25/11 41/26/11 33/9/11 
f 33/77/9 41/80/9 40/81/9 36/64/9 
f 38/18/10 44/29/10 47/30/10 39/17/10 
f 39/63/9 47/82/9 46/83/9 34/76/9 
f 34/10/11 46/37/11 45/38/11 35/7/11 
f 35/71/7 45/84/7 44/85/7 38/60/7 
s 1
f 25/50/7 26/86/7 29/58/7 30/61/7 
f 6/51/7 25/50/7 30/61/7 
f 8/19/9 7/87/9 48/88/9 3/20/9 
f 4/89/9 3/20/9 48/88/9 
f 31/62/9 28/65/9 27/90/9 7/87/9 
f 48/88/9 7/87/9 27/90/9 
s 8
f 1/1/1 4/4/1 49/6/19 50/5/20 
f 51/91/21 52/92/22 53/53/23 54/52/24 
f 55/93/10 56/94/10 57/95/10 58/96/10 
s off
f 49/6/25 59/17/25 60/18/25 50/5/25 
f 50/97/7 60/98/7 61/99/7 51/100/7 
f 51/91/26 61/101/26 62/102/26 52/92/26 
f 52/103/9 62/104/9 59/105/9 49/106/9 
f 63/30/5 64/31/5 65/32/5 66/29/5 
f 60/98/7 55/107/7 58/108/7 61/99/7 
f 67/24/12 68/25/12 69/26/12 70/23/12 
f 62/104/9 57/109/9 56/110/9 59/105/9 
f 59/111/11 63/112/11 66/113/11 60/114/11 
f 60/98/7 66/115/7 65/116/7 55/107/7 
f 55/93/10 65/73/10 64/74/10 56/94/10 
f 56/110/9 64/117/9 63/118/9 59/105/9 
f 61/57/11 67/69/11 70/66/11 62/56/11 
f 62/104/9 70/119/9 69/120/9 57/109/9 
f 57/95/10 69/121/10 68/122/10 58/96/10 
f 58/108/7 68/123/7 67/124/7 61/99/7 
s 1
f 25/50/7 1/49/7 50/97/7 51/100/7 
f 54/125/7 25/50/7 51/100/7 
s 8
f 26/52/13 71/91/27 72/92/28 27/53/14 
f 73/55/29 54/52/24 53/53/23 74/54/29 
f 75/96/12 76/93/12 77/94/12 78/95/12 
s off
f 72/92/30 71/91/30 79/101/30 80/102/30 
f 71/126/7 73/127/7 81/128/7 79/129/7 
f 73/55/31 74/54/31 82/56/31 81/57/31 
f 74/130/9 72/131/9 80/132/9 82/133/9 
f 83/75/11 84/72/11 85/73/11 86/74/11 
f 79/129/7 81/128/7 76/134/7 75/135/7 
f 87/69/10 88/66/10 89/67/10 90/68/10 
f 82/133/9 80/132/9 78/136/9 77/137/9 
f 80/56/5 79/57/5 84/69/5 83/66/5 
f 79/129/7 75/135/7 85/138/7 84/139/7 
f 75/96/12 78/95/12 86/121/12 85/122/12 
f 78/136/9 80/132/9 83/140/9 86/141/9 
f 81/114/5 82/111/5 88/112/5 87/113/5 
f 82/133/9 77/137/9 89/142/9 88/143/9 
f 77/94/12 76/93/12 90/73/12 89/74/12 
f 76/134/7 81/128/7 87/144/7 90/145/7 
s 1
f 71/126/7 26/86/7 25/50/7 73/127/7 
f 54/125/7 73/127/7 25/50/7 
f 48/88/9 53/146/9 52/103/9 49/106/9 
f 4/89/9 48/88/9 49/106/9 
f 27/90/9 72/131/9 74/130/9 53/146/9 
f 48/88/9 27/90/9 53/146/9 
# 84 polygons - 8 triangles

