# 3ds Max Wavefront OBJ Exporter v0.97b - (c)2007 guruware
# File Created: 10.10.2023 21:13:32

#
# object ufo
#

v  -40.9300 -13.1373 -9.0262
v  -35.9867 -13.1373 -17.1607
v  -40.9300 -13.1373 7.8686
v  -35.9867 -13.1373 16.9417
v  -17.7583 -13.1373 -35.3070
v  -17.7583 -13.1373 34.7751
v  0.1611 -13.1373 -35.3070
v  0.1611 -13.1373 34.7751
v  16.2268 -13.1373 -26.2339
v  16.2268 -13.1373 25.7020
v  34.1463 -13.1373 -8.0876
v  34.1463 -13.1373 7.8686
v  -42.7837 -8.1504 -10.2777
v  -38.7673 -8.1504 -20.2894
v  -18.9941 -8.1504 -40.0000
v  -18.9941 -8.1504 39.7810
v  -38.7673 -8.1504 18.8189
v  19.0074 -8.1504 -29.0497
v  36.0000 -8.1504 -9.0262
v  19.0074 -8.1504 29.7693
v  36.0000 -8.1504 9.7458
v  0.1611 -8.1504 -40.0000
v  0.1611 -8.1504 39.7810
v  -42.7837 -8.1504 8.8072
v  -38.7673 0.8057 -10.2777
v  -31.9703 8.8458 5.9914
v  -31.9703 8.8458 -6.2104
v  -38.7673 0.8057 8.8072
v  -18.9941 12.8150 -13.0935
v  -18.9941 0.8057 -19.0379
v  -18.9941 12.8150 12.8745
v  -18.9941 0.8057 19.7575
v  7.2671 10.9831 5.9914
v  19.0074 0.8057 9.7458
v  7.2671 10.9831 -6.2104
v  19.0074 0.8057 -9.0262
# 36 vertices

vn -0.5939 -0.7903 -0.1506
vn -0.3936 -0.8806 -0.2640
vn -0.5970 -0.7894 0.1430
vn -0.4251 -0.8595 0.2838
vn -0.1916 -0.8837 -0.4271
vn -0.1849 -0.8917 0.4132
vn 0.1316 -0.8885 -0.4397
vn 0.1207 -0.8982 0.4226
vn 0.2822 -0.8850 -0.3703
vn 0.2695 -0.9064 0.3253
vn 0.5928 -0.7767 -0.2131
vn 0.5809 -0.7874 0.2062
vn -0.8695 -0.4344 -0.2350
vn -0.6383 -0.6318 -0.4398
vn -0.2623 -0.6949 -0.6696
vn -0.2556 -0.7088 0.6575
vn -0.6984 -0.5581 0.4480
vn 0.4956 -0.6037 -0.6244
vn 0.8645 -0.3827 -0.3260
vn 0.4513 -0.6973 0.5568
vn 0.8049 -0.4678 0.3651
vn 0.1714 -0.6731 -0.7194
vn 0.1568 -0.6997 0.6970
vn -0.8864 -0.4077 0.2194
vn -0.7212 0.5986 -0.3486
vn -0.5509 0.8020 0.2307
vn -0.5458 0.8140 -0.1988
vn -0.7407 0.5851 0.3303
vn -0.1037 0.8260 -0.5541
vn -0.1249 0.7448 -0.6555
vn -0.1121 0.8348 0.5390
vn -0.1434 0.7618 0.6318
vn -0.5245 0.6875 0.5022
vn -0.1416 0.9037 0.4042
vn 0.3543 0.8590 0.3696
vn 0.4180 0.8613 0.2889
vn 0.2140 0.9059 0.3656
vn 0.4615 0.8757 0.1421
vn 0.3640 0.8511 -0.3782
vn 0.4339 0.8574 -0.2768
vn 0.4615 0.8757 -0.1421
vn 0.2892 0.8738 -0.3909
vn -0.1315 0.9116 -0.3895
vn -0.4923 0.7100 -0.5035
vn 0.0878 0.9274 -0.3635
vn 0.1023 0.9409 0.3229
vn -0.8998 0.4035 0.1656
vn -0.8998 0.4035 -0.1656
# 48 vertex normals

vt 0.1971 0.9572 0.0000
vt 0.1458 0.8914 0.0000
vt 0.2965 0.9572 0.0000
vt 0.3510 0.8914 0.0000
vt 0.0369 0.6678 0.0000
vt 0.4599 0.6678 0.0000
vt 0.0369 0.4441 0.0000
vt 0.4599 0.4441 0.0000
vt 0.0913 0.2467 0.0000
vt 0.4054 0.2467 0.0000
vt 0.2003 0.0230 0.0000
vt 0.2965 0.0230 0.0000
vt 0.1875 0.9770 0.0000
vt 0.1266 0.9309 0.0000
vt 0.0112 0.6875 0.0000
vt 0.4888 0.6875 0.0000
vt 0.3638 0.9309 0.0000
vt 0.0753 0.2072 0.0000
vt 0.1971 0.0033 0.0000
vt 0.4279 0.2072 0.0000
vt 0.3093 0.0033 0.0000
vt 0.0112 0.4441 0.0000
vt 0.4888 0.4441 0.0000
vt 0.3029 0.9770 0.0000
vt 0.6939 0.9309 0.0000
vt 0.7933 0.8454 0.0000
vt 0.7196 0.8454 0.0000
vt 0.8093 0.9309 0.0000
vt 0.6907 0.6875 0.0000
vt 0.6426 0.6875 0.0000
vt 0.8221 0.6875 0.0000
vt 0.8702 0.6875 0.0000
vt 0.8638 0.9309 0.0000
vt 0.9888 0.6875 0.0000
vt 0.8221 0.3388 0.0000
vt 0.8702 0.2270 0.0000
vt 0.9279 0.2072 0.0000
vt 0.8093 0.0033 0.0000
vt 0.6907 0.3388 0.0000
vt 0.6426 0.2270 0.0000
vt 0.6971 0.0033 0.0000
vt 0.5753 0.2072 0.0000
vt 0.5112 0.6875 0.0000
vt 0.6266 0.9309 0.0000
vt 0.5112 0.4441 0.0000
vt 0.9888 0.4441 0.0000
vt 0.8029 0.9770 0.0000
vt 0.6875 0.9770 0.0000
# 48 texture coords

g ufo
usemtl Material__25
s 1
f 1/1/1 2/2/2 3/3/3 
f 2/2/2 4/4/4 3/3/3 
f 2/2/2 5/5/5 4/4/4 
f 5/5/5 6/6/6 4/4/4 
f 5/5/5 7/7/7 6/6/6 
f 7/7/7 8/8/8 6/6/6 
f 7/7/7 9/9/9 8/8/8 
f 9/9/9 10/10/10 8/8/8 
f 9/9/9 11/11/11 10/10/10 
f 11/11/11 12/12/12 10/10/10 
f 1/1/1 3/3/3 13/13/13 
f 2/2/2 1/1/1 13/13/13 
f 2/2/2 13/13/13 14/14/14 
f 15/15/15 5/5/5 2/2/2 
f 7/7/7 5/5/5 15/15/15 
f 14/14/14 15/15/15 2/2/2 
f 4/4/4 6/6/6 16/16/16 
f 4/4/4 16/16/16 17/17/17 
f 18/18/18 11/11/11 9/9/9 
f 18/18/18 19/19/19 11/11/11 
f 19/19/19 12/12/12 11/11/11 
f 8/8/8 10/10/10 20/20/20 
f 10/10/10 12/12/12 21/21/21 
f 20/20/20 10/10/10 21/21/21 
f 19/19/19 21/21/21 12/12/12 
f 9/9/9 7/7/7 22/22/22 
f 18/18/18 9/9/9 22/22/22 
f 22/22/22 7/7/7 15/15/15 
f 6/6/6 8/8/8 23/23/23 
f 23/23/23 8/8/8 20/20/20 
f 16/16/16 6/6/6 23/23/23 
f 3/3/3 4/4/4 24/24/24 
f 3/3/3 24/24/24 13/13/13 
f 4/4/4 17/17/17 24/24/24 
f 25/25/25 26/26/26 27/27/27 
f 25/25/25 28/28/28 26/26/26 
f 29/29/29 25/25/25 27/27/27 
f 29/29/29 30/30/30 25/25/25 
f 26/26/26 31/31/31 27/27/27 
f 28/28/28 31/31/31 26/26/26 
f 31/31/31 29/29/29 27/27/27 
f 28/28/28 32/32/32 31/31/31 
f 32/32/32 28/28/28 17/33/33 
f 17/33/33 16/34/34 32/32/32 
f 31/31/31 33/35/35 29/29/29 
f 31/31/31 32/32/32 33/35/35 
f 32/32/32 34/36/36 33/35/35 
f 20/37/37 34/36/36 32/32/32 
f 20/37/37 21/38/38 34/36/36 
f 33/35/35 34/36/36 35/39/39 
f 33/35/35 35/39/39 29/29/29 
f 36/40/40 30/30/30 29/29/29 
f 34/36/36 36/40/40 35/39/39 
f 35/39/39 36/40/40 29/29/29 
f 34/36/36 21/38/38 36/40/40 
f 21/38/38 19/41/41 36/40/40 
f 19/41/41 18/42/42 36/40/40 
f 15/43/43 14/44/44 30/30/30 
f 25/25/25 30/30/30 14/44/44 
f 36/40/40 18/42/42 22/45/45 
f 30/30/30 36/40/40 22/45/45 
f 30/30/30 22/45/45 15/43/43 
f 23/46/46 20/37/37 32/32/32 
f 16/34/34 23/46/46 32/32/32 
f 28/28/28 24/47/47 17/33/33 
f 13/48/48 28/28/28 25/25/25 
f 25/25/25 14/44/44 13/48/48 
f 13/48/48 24/47/47 28/28/28 
# 0 polygons - 68 triangles

